<svg width="407" height="345" viewBox="0 0 407 345" fill="none" xmlns="http://www.w3.org/2000/svg">
<g id="planet">
<g id="Group 1">
<circle id="Ellipse 1" cx="211.5" cy="155.5" r="131" fill="#88C0D0" stroke="#4C566A" stroke-width="3"/>
<path id="Vector" fill-rule="evenodd" clip-rule="evenodd" d="M226.766 197.447C233.202 195.275 239.411 201.504 245.02 205.582C250.874 209.837 256.919 214.298 259.677 221.37C262.577 228.809 265.074 238.76 260.4 245.025C255.486 251.613 245.289 246.843 238.155 250.219C233.443 252.449 231.861 260.251 226.766 260.942C221.612 261.64 217.882 255.89 213.125 253.61C206.468 250.417 196.856 251.922 193.385 244.935C190.003 238.126 193.333 228.784 197.807 222.775C201.815 217.393 210.24 219.982 215.196 215.647C220.604 210.917 220.15 199.68 226.766 197.447Z" fill="#ECEFF4" stroke="#4C566A" stroke-width="2"/>
<path id="Vector_2" fill-rule="evenodd" clip-rule="evenodd" d="M116.017 131.851C121.958 123.257 118.424 102.705 129.183 102.612C139.112 102.526 144.851 122.366 153.732 131.525C161.109 139.132 170.864 142.54 176.735 151.65C183.083 161.498 189.832 174.443 187.247 183.527C184.543 193.028 169.419 187.424 164.397 195.004C159.085 203.022 167.527 222.95 158.9 226.314C150.826 229.461 140.864 214.123 131.574 207.8C123.924 202.592 114.118 201.065 109.11 192.423C104.057 183.704 108.464 174.837 107.092 165.556C105.935 157.73 99.9448 149.021 101.709 142.36C103.475 135.689 112.441 137.024 116.017 131.851Z" fill="#ECEFF4" stroke="#4C566A" stroke-width="2"/>
<g id="Group 2">
<path id="Ellipse 2" d="M225.893 112.34L225.807 112.736L226.022 113.081C228.268 116.675 228.239 119.249 227.094 121.079C225.885 123.01 223.229 124.475 219.426 125.31C211.914 126.961 200.8 125.963 191.231 122.543C183.215 115.829 179.638 110.988 178.657 107.29C178.175 105.473 178.318 103.924 178.888 102.517C179.467 101.086 180.509 99.747 181.912 98.4113C183.316 97.0753 185.031 95.7879 186.908 94.4415C187.355 94.1211 187.812 93.797 188.274 93.4685C189.737 92.4302 191.26 91.3486 192.733 90.2019C196.613 87.1812 200.326 83.5756 202.112 78.6291L202.239 78.2765L202.103 77.9271C196.463 63.4232 193.941 53.6002 193.393 47.2199C193.119 44.0275 193.346 41.7731 193.867 40.2488C194.38 38.752 195.152 38.0121 195.993 37.6867C196.874 37.3461 198.023 37.3847 199.4 37.8426C200.768 38.2975 202.264 39.1363 203.757 40.2476C206.748 42.4744 209.568 45.6792 211.154 48.6603L211.76 49.8009L212.712 48.9276C217.15 44.8569 220.783 42.2519 223.72 40.841C226.668 39.4251 228.77 39.2784 230.263 39.8607C231.743 40.4377 232.906 41.8422 233.722 44.1946C234.538 46.5448 234.951 49.6945 235.023 53.4795C235.311 68.656 230.115 92.8103 225.893 112.34Z" fill="#ECEFF4" stroke="#4C566A" stroke-width="2"/>
<g id="flag" clip-path="url(#clip0_1_2)">
<path id="Vector_3" d="M190.144 111.971C190.144 111.971 191.065 111.707 192.954 112.656C194.842 113.606 195.518 115.399 197.407 116.348C199.296 117.298 200.217 117.034 200.217 117.034L203.717 110.07C203.717 110.07 202.796 110.334 200.907 109.385C199.019 108.435 198.343 106.642 196.454 105.692C194.565 104.743 193.644 105.007 193.644 105.007L190.144 111.971Z" stroke="#BF606A" stroke-width="2" stroke-linecap="round" stroke-linejoin="round"/>
<path id="Vector_4" d="M188.102 116.033L190.144 111.971" stroke="#BF606A" stroke-width="2" stroke-linecap="round" stroke-linejoin="round"/>
</g>
</g>
<path id="Vector_5" fill-rule="evenodd" clip-rule="evenodd" d="M326.485 154.031C326.755 160.77 319.02 165.647 315.545 171.962C308.821 184.184 313.817 206.046 297.066 207.504C280.26 208.966 285.789 183.408 272.648 175.695C258.263 167.252 229.835 176.63 222.495 163.736C215.424 151.313 233.716 138.161 244.951 127.036C256.66 115.44 268.972 97.292 287.017 99.8437C305.871 102.51 304.79 123.984 314.139 136.819C318.466 142.761 326.207 147.075 326.485 154.031Z" fill="#ECEFF4" stroke="#4C566A" stroke-width="2"/>
</g>
<g id="planetgithub">
<circle id="Ellipse 3" cx="344.5" cy="293.5" r="31.5" fill="#ECEFF4" stroke="#4C566A" stroke-width="2"/>
<g id="github">
<path id="Vector_6" d="M339.88 304.698C332.18 306.964 332.18 300.922 329.1 300.167M350.66 309.229V303.384C350.718 302.664 350.619 301.94 350.369 301.26C350.119 300.58 349.725 299.96 349.212 299.442C354.048 298.913 359.13 297.116 359.13 288.869C359.13 286.76 358.303 284.732 356.82 283.205C357.522 281.36 357.473 279.32 356.682 277.51C356.682 277.51 354.864 276.982 350.66 279.746C347.13 278.808 343.41 278.808 339.88 279.746C335.676 276.982 333.858 277.51 333.858 277.51C333.067 279.32 333.018 281.36 333.72 283.205C332.226 284.743 331.398 286.79 331.41 288.914C331.41 297.101 336.492 298.898 341.328 299.487C340.821 300 340.43 300.613 340.181 301.284C339.931 301.956 339.829 302.671 339.88 303.384V309.229" stroke="#4C566A" stroke-width="2" stroke-linecap="round" stroke-linejoin="round"/>
</g>
</g>
<g id="planetdev">
<circle id="Ellipse 3_2" cx="64.5" cy="41.5" r="31.5" fill="#ECEFF4" stroke="#4C566A" stroke-width="2"/>
<path id="DEV" d="M50.7784 48H46.1378V34.9091H50.8168C52.1335 34.9091 53.267 35.1712 54.2173 35.6953C55.1676 36.2152 55.8984 36.9631 56.4098 37.9389C56.9254 38.9148 57.1832 40.0824 57.1832 41.4418C57.1832 42.8054 56.9254 43.9773 56.4098 44.9574C55.8984 45.9375 55.1634 46.6896 54.2045 47.2138C53.25 47.7379 52.108 48 50.7784 48ZM48.9055 45.6286H50.6634C51.4815 45.6286 52.1697 45.4837 52.728 45.1939C53.2905 44.8999 53.7124 44.446 53.9936 43.8324C54.2791 43.2145 54.4219 42.4176 54.4219 41.4418C54.4219 40.4744 54.2791 39.6839 53.9936 39.0703C53.7124 38.4567 53.2926 38.005 52.7344 37.7152C52.1761 37.4254 51.4879 37.2805 50.6697 37.2805H48.9055V45.6286ZM59.2335 48V34.9091H68.0545V37.1911H62.0012V40.3104H67.6007V42.5923H62.0012V45.718H68.0801V48H59.2335ZM72.62 34.9091L75.7841 44.8551H75.9055L79.076 34.9091H82.1442L77.6314 48H74.0646L69.5455 34.9091H72.62Z" fill="#4C566A"/>
</g>
</g>
<defs>
<clipPath id="clip0_1_2">
<rect width="16.9118" height="15.5881" fill="white" transform="translate(192.001 102) rotate(26.6855)"/>
</clipPath>
</defs>
</svg>
